# xmcd CD database file
#
# Track frame offsets:
#	150
#	14310
#	27780
#	40835
#	57057
#	72732
#	82865
#	108420
#	120852
#	134920
#	152900
#	167020
#	187280
#
# Disc length: 2879 seconds
#
# Revision: 0
# Processed by: cddbd v1.5.1PL2 Copyright (c) Steve Scherf et al.
# Submitted via: CDex 1.70beta1
#
DISCID=ad0b3d0d
DTITLE=Banjo Buddies Dixieland Band - Twenty-Fifth Anniversary
DYEAR=1997
DGENRE=Jazz
TTITLE0=Bei Mir Bist Du Schon
TTITLE1=Route 66
TTITLE2=Indiana
TTITLE3=Radio
TTITLE4=4-Voice Medley
TTITLE5=World Is Waiting For The Sunrise
TTITLE6=If I Had My Way
TTITLE7=Avalon
TTITLE8=Dr. Jazz
TTITLE9=Chatanooga Choo Choo
TTITLE10=Clarinet Marmalade
TTITLE11=The Torch
TTITLE12=South Rampart Street Parade
EXTD=YEAR: 1997
EXTT0=
EXTT1=
EXTT2=
EXTT3=
EXTT4=
EXTT5=
EXTT6=
EXTT7=
EXTT8=
EXTT9=
EXTT10=
EXTT11=
EXTT12=
PLAYORDER=
